nColumns=19
nRows=94
DataType=double
version=3
OpenSimVersion=4.1
endheader
time	ground_force_1_vx	ground_force_1_vy	ground_force_1_vz	ground_force_1_px	ground_force_1_py	ground_force_1_pz	ground_force_1_mx	ground_force_1_my	ground_force_1_mz	ground_force_2_vx	ground_force_2_vy	ground_force_2_vz	ground_force_2_px	ground_force_2_py	ground_force_2_pz	ground_force_2_mx	ground_force_2_my	ground_force_2_mz
1.29	-0.525776	7.61268	-3.49475	0.776316	0	-0.354376	-0	0.88137	-0	-14.5577	23.1683	4.68854	1.17171	0	-0.538538	-0	2.87673	-0
1.3	-0.811051	2.72825	-1.99288	-0.000648736	0	-1.64817e-05	0	0	0	-21.487	60.1179	9.13332	1.14287	0	-0.55902	-0	3.12216	-0
1.31	-0.346234	0.799832	-0.899331	-0.000648736	0	-1.64817e-05	0	0	0	-19.28	147.571	15.3312	1.1216	0	-0.573543	-0	3.21741	-0
1.32	-0.0631745	0.275987	-0.0878287	-0.000648736	0	-1.64817e-05	0	0	0	-3.67084	306.038	22.2375	1.10534	0	-0.581565	-0	3.24237	-0
1.33	-0.0106657	0.399285	0.621088	-0.000648736	0	-1.64817e-05	0	0	0	10.0923	506.735	29.136	1.09368	0	-0.585617	-0	3.25589	-0
1.34	-0.0158785	0.883991	1.11231	-0.000648736	0	-1.64817e-05	0	0	0	3.29147	679.015	36.9904	1.08699	0	-0.588013	-0	3.25358	-0
1.35	0.232279	1.3197	1.08316	-0.000648736	0	-1.64817e-05	0	0	0	-24.6981	786.144	47.8838	1.08428	0	-0.590492	-0	3.18372	-0
1.36	0.503443	1.19033	0.629265	-0.000648736	0	-1.64817e-05	0	0	0	-61.8146	851.919	62.5594	1.08426	0	-0.593753	-0	3.00961	-0
1.37	0.361812	0.617867	0.198202	-0.000648736	0	-1.64817e-05	0	0	0	-89.579	909.47	78.7478	1.08365	0	-0.597427	-0	2.76044	-0
1.38	0.127607	0.190571	0.00448536	-0.000648736	0	-1.64817e-05	0	0	0	-99.2035	972.543	92.8707	1.07868	0	-0.600789	-0	2.52288	-0
1.39	0.0276612	0.0387703	-0.03085	-0.000648736	0	-1.64817e-05	0	0	0	-96.7578	1038.78	103.168	1.06987	0	-0.603402	-0	2.38477	-0
1.4	0.00425936	0.00576807	-0.0194746	-0.000648736	0	-1.64817e-05	0	0	0	-88.1099	1097.06	109.962	1.05935	0	-0.605317	-0	2.38308	-0
1.41	0.000486105	0.000714492	-0.00687425	-0.000648736	0	-1.64817e-05	0	0	0	-77.1947	1138.65	114.095	1.04792	0	-0.606813	-0	2.49178	-0
1.42	-0.000198989	0.000425228	0.00155959	-0.000648736	0	-1.64817e-05	0	0	0	-67.7436	1162.59	116.203	1.03625	0	-0.607918	-0	2.64601	-0
1.43	-0.00188992	0.00272107	0.0114703	-0.000648736	0	-1.64817e-05	0	0	0	-59.4349	1172.38	116.277	1.02438	0	-0.608648	-0	2.77842	-0
1.44	-0.0108811	0.0155702	0.0294372	-0.000648736	0	-1.64817e-05	0	0	0	-49.0199	1171.26	114.092	1.0119	0	-0.609165	-0	2.84573	-0
1.45	-0.0427616	0.061139	0.0573894	-0.000648736	0	-1.64817e-05	0	0	0	-36.3831	1160.09	110.06	0.999008	0	-0.609583	-0	2.8393	-0
1.46	-0.099783	0.142629	0.0848318	-0.000648736	0	-1.64817e-05	0	0	0	-22.997	1137.15	104.76	0.986138	0	-0.609999	-0	2.78326	-0
1.47	-0.119454	0.170738	0.0919449	-0.000648736	0	-1.64817e-05	0	0	0	-9.65679	1101.69	98.2646	0.973374	0	-0.610449	-0	2.72182	-0
1.48	-0.0704194	0.100667	0.072482	-0.000648736	0	-1.64817e-05	0	0	0	3.43215	1056.1	90.5423	0.960466	0	-0.610863	-0	2.69832	-0
1.49	-0.0228018	0.0326097	0.0428199	-0.000648736	0	-1.64817e-05	0	0	0	17.6942	1003.57	81.927	0.946556	0	-0.611143	-0	2.7355	-0
1.5	-0.0047307	0.00677327	0.0206006	-0.000648736	0	-1.64817e-05	0	0	0	34.2824	945.523	72.9323	0.930854	0	-0.611226	-0	2.82725	-0
1.51	-0.000760056	0.00107893	0.0112726	-0.000648736	0	-1.64817e-05	0	0	0	51.7237	881.281	63.9657	0.913572	0	-0.611037	-0	2.94368	-0
1.52	-0.000518137	0.000622755	0.0148278	-0.000648736	0	-1.64817e-05	0	0	0	67.0209	809.447	55.2868	0.89567	0	-0.610577	-0	3.04475	-0
1.53	-0.00290214	0.00331801	0.0340678	-0.000648736	0	-1.64817e-05	0	0	0	77.8894	730.001	47.112	0.87819	0	-0.610008	-0	3.09568	-0
1.54	-0.0139615	0.015882	0.0731209	-0.000648736	0	-1.64817e-05	0	0	0	83.1479	644.706	39.633	0.861521	0	-0.609476	-0	3.07849	-0
1.55	-0.0431161	0.0489666	0.124272	-0.000648736	0	-1.64817e-05	0	0	0	82.9783	556.033	32.915	0.84544	0	-0.608963	-0	2.9961	-0
1.56	-0.0731393	0.0830271	0.157728	-0.000648736	0	-1.64817e-05	0	0	0	78.1243	466.69	26.9049	0.829787	0	-0.608365	-0	2.8673	-0
1.57	-0.0611155	0.0694293	0.145391	-0.000648736	0	-1.64817e-05	0	0	0	69.3959	379.84	21.4899	0.814546	0	-0.607606	-0	2.71484	-0
1.58	-0.0264025	0.0304266	0.0978141	-0.000648736	0	-1.64817e-05	0	0	0	58.0055	299.483	16.5369	0.800505	0	-0.606667	-0	2.55251	-0
1.59	-0.00860755	0.0130512	0.0483113	-0.000648736	0	-1.64817e-05	0	0	0	45.9088	229.503	12.0493	0.788939	0	-0.605535	-0	2.37856	-0
1.6	-0.0155785	0.0366998	0.0121751	-0.000648736	0	-1.64817e-05	0	0	0	35.4636	171.079	8.25411	0.779897	0	-0.604081	-0	2.17937	-0
1.61	-0.0888783	0.177392	-0.0247697	-0.000648736	0	-1.64817e-05	0	0	0	27.56	123.199	5.3891	0.774637	0	-0.601994	-0	1.94137	-0
1.62	-0.451851	0.69927	-0.117519	-0.000648736	0	-1.64817e-05	0	0	0	20.9817	85.4434	3.44495	0.77613	0	-0.599166	-0	1.6635	-0
1.63	-1.85447	2.40557	-0.426495	-0.000648736	0	-1.64817e-05	0	0	0	14.5036	57.2721	2.19135	0.783799	0	-0.595436	-0	1.36221	-0
1.64	-5.62099	7.69519	-1.33615	1.16773	0	-0.363593	-0	0.25236	-0	8.31113	36.471	1.39879	0.795222	0	-0.589662	-0	1.0668	-0
1.65	-11.3621	22.6534	-3.44387	1.15511	0	-0.382883	-0	0.098283	-0	3.10729	20.8152	0.926479	0.811816	0	-0.580385	-0	0.807725	-0
1.66	-13.3775	61.8731	-7.02093	1.14345	0	-0.394643	0	-0.117126	0	-0.311031	9.7617	0.630076	0.827502	0	-0.56568	-0	0.603155	-0
1.67	-4.10705	150.45	-11.1155	1.13232	0	-0.399005	0	-0.311512	0	-1.54695	3.64418	0.359392	-0.000648736	0	-1.64817e-05	0	0	0
1.68	10.4464	305.573	-14.135	1.12183	0	-0.398611	0	-0.343906	0	-1.1717	1.24991	0.0589673	-0.000648736	0	-1.64817e-05	0	0	0
1.69	10.1786	501.884	-17.0181	1.11487	0	-0.396388	0	-0.050099	0	-0.284191	0.611258	-0.170571	-0.000648736	0	-1.64817e-05	0	0	0
1.7	-12.1667	672.514	-24.4395	1.11132	0	-0.394892	-0	0.658121	-0	-0.00358678	0.432406	-0.157779	-0.000648736	0	-1.64817e-05	0	0	0
1.71	-44.9942	778.231	-39.0154	1.10867	0	-0.3949	-0	1.68113	-0	-0.652826	0.258959	0.0834072	-0.000648736	0	-1.64817e-05	0	0	0
1.72	-76.6321	844.228	-55.7921	1.1048	0	-0.394988	-0	2.72245	-0	-1.31698	0.407974	0.207	-0.000648736	0	-1.64817e-05	0	0	0
1.73	-97.7299	910.914	-67.7631	1.09812	0	-0.393899	-0	3.43352	-0	-0.952656	0.925707	-0.062996	-0.000648736	0	-1.64817e-05	0	0	0
1.74	-104.314	991.863	-73.9279	1.08827	0	-0.392867	-0	3.60844	-0	-0.281335	1.31884	-0.414476	-0.000648736	0	-1.64817e-05	0	0	0
1.75	-100.369	1074.94	-76.8563	1.07661	0	-0.392641	-0	3.27842	-0	-0.666186	1.40149	-0.48184	-0.000648736	0	-1.64817e-05	0	0	0
1.76	-91.3903	1142.29	-77.9117	1.0644	0	-0.392136	-0	2.6658	-0	-1.06924	1.35218	-0.55111	-0.000648736	0	-1.64817e-05	0	0	0
1.77	-82.6089	1184.61	-78.3278	1.05206	0	-0.391257	-0	2.05833	-0	-0.823048	1.35624	-0.773717	-0.000648736	0	-1.64817e-05	0	0	0
1.78	-74.9831	1202.77	-79.2281	1.03981	0	-0.390439	-0	1.67754	-0	-1.02966	1.41283	-0.820314	-0.000648736	0	-1.64817e-05	0	0	0
1.79	-67.3985	1202.36	-79.9732	1.02772	0	-0.389228	-0	1.59882	-0	-0.982666	1.20914	-0.782555	-0.000648736	0	-1.64817e-05	0	0	0
1.8	-58.4503	1185.08	-79.7638	1.01578	0	-0.387621	-0	1.7486	-0	0.0443666	0.787751	-0.808738	-0.000648736	0	-1.64817e-05	0	0	0
1.81	-47.8514	1149.81	-78.6699	1.00404	0	-0.386315	-0	1.95909	-0	0.526395	0.528382	-0.629313	-0.000648736	0	-1.64817e-05	0	0	0
1.82	-36.323	1099.6	-76.1993	0.992283	0	-0.385064	-0	2.04552	-0	0.461829	0.541334	-0.396151	-0.000648736	0	-1.64817e-05	0	0	0
1.83	-23.9822	1039.64	-71.9648	0.980374	0	-0.383335	-0	1.87913	-0	0.793088	0.606287	-0.454307	-0.000648736	0	-1.64817e-05	0	0	0
1.84	-9.97336	973.047	-66.6883	0.968166	0	-0.381779	-0	1.43136	-0	0.851467	0.645739	-0.548838	-0.000648736	0	-1.64817e-05	0	0	0
1.85	6.33639	903.754	-60.457	0.955212	0	-0.380824	-0	0.777375	-0	0.35019	0.691771	-0.390243	-0.000648736	0	-1.64817e-05	0	0	0
1.86	24.1469	835.277	-52.8142	0.941073	0	-0.379823	-0	0.068532	-0	0.00676824	0.523898	-0.137989	-0.000648736	0	-1.64817e-05	0	0	0
1.87	41.6156	765.697	-45.0698	0.925484	0	-0.378846	0	-0.518043	0	-0.0368598	0.223863	0.00305618	-0.000648736	0	-1.64817e-05	0	0	0
1.88	56.3971	692.118	-38.9831	0.908834	0	-0.378556	0	-0.845856	0	-0.0133969	0.0577148	0.0320271	-0.000648736	0	-1.64817e-05	0	0	0
1.89	65.8495	615.966	-34.2703	0.892123	0	-0.378341	0	-0.870729	0	-0.00267227	0.0101885	0.021051	-0.000648736	0	-1.64817e-05	0	0	0
1.9	69.0039	539.7	-30.2219	0.87614	0	-0.377598	0	-0.646713	0	-0.000377903	0.00136399	0.00900338	-0.000648736	0	-1.64817e-05	0	0	0
1.91	67.6829	464.213	-27.0487	0.860597	0	-0.377115	0	-0.291733	0	-4.19899e-05	0.000149706	0.00303873	-0.000648736	0	-1.64817e-05	0	0	0
1.92	63.645	391.146	-24.178	0.845717	0	-0.376844	-0	0.063952	-0	-3.99916e-06	1.47996e-05	0.000896946	-0.000648736	0	-1.64817e-05	0	0	0
1.93	57.7519	322.861	-20.5291	0.832589	0	-0.375379	-0	0.329405	-0	4.44051e-11	2.3183e-06	0.000356982	-0.000648736	0	-1.64817e-05	0	0	0
1.94	50.8534	261.317	-16.4806	0.820038	0	-0.372993	-0	0.482424	-0	2.00043e-06	1.15702e-05	0.000639961	-0.000648736	0	-1.64817e-05	0	0	0
1.95	44.3762	208.123	-13.0066	0.806343	0	-0.370994	-0	0.558726	-0	1.80062e-05	0.000127053	0.00230978	-0.000648736	0	-1.64817e-05	0	0	0
1.96	39.1	163.409	-10.1626	0.791841	0	-0.368499	-0	0.613734	-0	0.000135065	0.00122011	0.00803755	-0.000648736	0	-1.64817e-05	0	0	0
1.97	34.3174	126.727	-7.84291	0.774608	0	-0.364625	-0	0.685866	-0	0.000613555	0.00979947	0.0246141	-0.000648736	0	-1.64817e-05	0	0	0
1.98	28.7694	97.8066	-6.17765	0.752366	0	-0.361306	-0	0.777412	-0	-0.00128717	0.0628816	0.064354	-0.000648736	0	-1.64817e-05	0	0	0
1.99	22.2468	75.6738	-4.77584	0.728807	0	-0.358594	-0	0.857106	-0	-0.051209	0.310146	0.139444	-0.000648736	0	-1.64817e-05	0	0	0
2	15.5344	58.1907	-3.16913	0.712396	0	-0.353072	-0	0.880836	-0	-0.458417	1.19518	0.243554	-0.000648736	0	-1.64817e-05	0	0	0
2.01	9.20864	42.9951	-1.66015	0.708547	0	-0.345535	-0	0.814936	-0	-2.28944	4.04179	0.333922	-0.000648736	0	-1.64817e-05	0	0	0
2.02	3.48105	29.2446	-0.683048	0.716492	0	-0.339181	-0	0.647114	-0	-7.16055	13.0379	0.330958	1.16647	0	-0.519076	-0	1.4103	-0
2.03	-0.413114	17.5003	-0.103556	0.723089	0	-0.332694	-0	0.386127	-0	-14.5718	39.0113	0.0995015	1.15115	0	-0.513651	-0	2.42618	-0
2.04	-1.57214	8.57366	0.352911	0.714327	0	-0.322907	-0	0.058423	-0	-18.6668	104.705	-0.527051	1.12708	0	-0.514742	-0	3.42531	-0
2.05	-0.956195	3.16365	0.782132	-0.000648736	0	-1.64817e-05	0	0	0	-13.8332	237.458	-1.21837	1.10709	0	-0.518107	-0	4.13739	-0
2.06	-0.261731	0.968175	1.20542	-0.000648736	0	-1.64817e-05	0	0	0	-8.19944	432.865	-0.169733	1.09371	0	-0.520888	-0	4.30521	-0
2.07	-0.0391442	0.454098	1.51751	-0.000648736	0	-1.64817e-05	0	0	0	-19.8728	636.12	5.31876	1.08729	0	-0.522521	-0	3.79087	-0
2.08	0.0279389	0.378855	1.58052	-0.000648736	0	-1.64817e-05	0	0	0	-51.7964	791.431	16.1106	1.08554	0	-0.523694	-0	2.65431	-0
2.09	0.0779306	0.463822	1.53799	-0.000648736	0	-1.64817e-05	0	0	0	-86.7675	889.447	30.3032	1.0843	0	-0.52515	-0	1.15245	-0
2.1	-0.0845391	0.843311	1.62486	-0.000648736	0	-1.64817e-05	0	0	0	-109.453	956.876	45.1988	1.08018	0	-0.526969	0	-0.347404	0
2.11	-0.184925	1.24571	1.72423	-0.000648736	0	-1.64817e-05	0	0	0	-117.042	1019.7	57.9016	1.0722	0	-0.528607	0	-1.49879	0
2.12	0.0626191	1.10478	1.67558	-0.000648736	0	-1.64817e-05	0	0	0	-111.938	1081.32	65.6294	1.06088	0	-0.529658	0	-2.09817	0
2.13	0.0573105	0.831262	1.64036	-0.000648736	0	-1.64817e-05	0	0	0	-98.6186	1134.27	68.3074	1.04787	0	-0.530253	0	-2.14676	0
2.14	-0.354983	0.653121	1.57945	-0.000648736	0	-1.64817e-05	0	0	0	-84.928	1172.15	68.3755	1.03517	0	-0.530583	0	-1.8199	0
2.15	-0.25971	0.139357	1.19076	-0.000648736	0	-1.64817e-05	0	0	0	-75.4996	1191.86	67.6817	1.02323	0	-0.530875	0	-1.36439	0
2.16	0.163447	-0.343802	0.660127	-0.000648736	0	-1.64817e-05	0	0	0	-69.2019	1195.56	66.7532	1.01183	0	-0.53124	0	-0.987471	0
2.17	0.0784264	-0.17543	0.442836	-0.000648736	0	-1.64817e-05	0	0	0	-61.7434	1187.71	65.3068	1.00026	0	-0.531701	0	-0.791098	0
2.18	-0.174116	0.1822	0.511214	-0.000648736	0	-1.64817e-05	0	0	0	-51.0435	1169.61	62.7403	0.987768	0	-0.532212	0	-0.76699	0
2.19	-0.124711	0.178492	0.569105	-0.000648736	0	-1.64817e-05	0	0	0	-38.4412	1140.25	58.9988	0.974708	0	-0.532566	0	-0.835115	0
2.2	0.0837305	-0.0181396	0.513267	-0.000648736	0	-1.64817e-05	0	0	0	-25.0023	1099.63	54.3432	0.961449	0	-0.532678	0	-0.894292	0
2.21	0.173895	-0.115736	0.383571	-0.000648736	0	-1.64817e-05	0	0	0	-10.4607	1049.44	48.9467	0.947809	0	-0.53267	0	-0.862399	0
2.22	0.098584	-0.0806709	0.251768	-0.000648736	0	-1.64817e-05	0	0	0	5.0039	992.95	43.0511	0.934016	0	-0.532597	0	-0.698163	0
